<?xml version="1.0" encoding="UTF-8" standalone="no"?>
<!DOCTYPE svg PUBLIC "-//W3C//DTD SVG 20010904//EN" "http://www.w3.org/TR/2001/REC-SVG-20010904/DTD/svg10.dtd">
<svg version="1.0" xmlns="http://www.w3.org/2000/svg" width="1024.000000pt" height="1024.000000pt" viewBox="0 0 1024.000000 1024.000000" preserveAspectRatio="xMidYMid meet">
<metadata>
Created by potrace 1.15, written by Peter Selinger 2001-2017
</metadata>
<g transform="translate(0.000000,1024.000000) scale(0.100000,-0.100000)" fill="#000000" stroke="none">
<path d="M5014 9934 c-54 -80 -109 -157 -121 -172 -13 -15 -23 -30 -23 -34 0 -4 -6 -13 -13 -20 -7 -7 -78 -107 -157 -223 -176 -258 -181 -265 -202 -289 -10 -11 -18 -23 -18 -26 0 -4 -8 -16 -17 -28 -10 -11 -69 -96 -132 -189 -63 -92 -134 -195 -158 -228 -23 -33 -49 -69 -57 -80 -8 -11 -27 -38 -43 -61 -66 -97 -309 -446 -364 -524 -175 -248 -188 -271 -200 -345 -6 -38 -15 -96 -20 -128 -5 -33 -11 -62 -14 -67 -3 -4 -9 -36 -14 -71 -6 -35 -15 -90 -21 -121 -5 -32 -15 -84 -20 -115 -11 -56 -19 -102 -39 -228 -10 -58 -13 -78 -46 -255 -27 -143 -68 -374 -85 -480 -5 -30 -14 -82 -20 -115 -6 -33 -15 -89 -21 -124 -5 -35 -11 -66 -14 -70 -2 -4 -9 -34 -14 -67 -6 -32 -20 -113 -31 -179 -12 -66 -23 -136 -26 -155 -3 -19 -9 -53 -14 -75 -5 -22 -14 -74 -20 -115 -7 -41 -21 -120 -32 -175 -16 -86 -30 -164 -63 -355 -3 -19 -10 -57 -15 -85 -5 -27 -14 -79 -20 -115 -6 -36 -15 -87 -20 -115 -16 -85 -60 -327 -70 -387 -24 -139 -32 -186 -40 -228 -9 -46 -22 -124 -41 -232 -5 -35 -16 -94 -24 -133 -7 -38 -19 -99 -25 -135 -6 -36 -15 -87 -20 -115 -5 -27 -14 -79 -20 -115 -6 -36 -15 -85 -20 -110 -5 -25 -14 -79 -20 -120 -7 -41 -23 -129 -36 -195 -13 -66 -26 -148 -30 -182 l-7 -63 39 -16 c22 -9 63 -27 92 -40 29 -13 55 -24 57 -24 2 0 28 -11 57 -24 29 -13 91 -40 138 -61 47 -21 109 -48 138 -61 29 -13 55 -24 57 -24 2 0 33 -13 67 -29 57 -26 166 -73 243 -106 65 -28 104 -45 188 -84 49 -23 91 -41 93 -41 2 0 26 -10 52 -21 26 -12 61 -27 77 -34 17 -7 55 -24 85 -38 30 -14 89 -39 130 -57 41 -18 103 -45 138 -61 35 -16 65 -29 68 -29 2 0 23 -9 47 -19 105 -48 338 -151 342 -151 2 0 29 -11 60 -25 30 -14 79 -36 108 -49 28 -13 72 -32 97 -44 25 -11 73 -31 108 -45 69 -29 60 -30 190 29 29 13 54 24 57 24 2 0 32 13 67 29 57 26 106 48 358 156 41 18 98 42 125 55 28 12 66 29 85 37 19 8 53 23 75 33 41 18 78 34 150 65 63 27 76 33 140 61 33 14 107 46 165 71 58 24 141 61 185 80 139 62 174 77 273 119 20 9 55 24 77 34 22 9 56 24 75 33 19 8 61 27 93 41 32 14 60 26 63 26 3 0 33 13 67 29 54 25 143 64 242 106 117 50 125 55 125 81 0 14 -4 44 -9 67 -5 23 -14 69 -20 102 -6 33 -22 119 -36 190 -14 72 -30 157 -36 190 -6 33 -14 80 -19 105 -5 25 -14 74 -20 110 -6 36 -15 85 -20 110 -5 25 -14 74 -20 110 -6 36 -16 85 -22 110 -5 25 -14 69 -19 98 -9 50 -17 94 -39 220 -6 31 -16 84 -21 117 -35 201 -70 389 -79 425 -5 19 -14 67 -20 105 -6 39 -15 90 -20 115 -5 25 -14 74 -20 110 -6 36 -15 83 -20 105 -4 22 -14 72 -20 110 -7 39 -21 113 -31 165 -11 52 -24 120 -29 150 -5 30 -14 81 -20 113 -5 31 -14 82 -20 112 -5 30 -14 80 -20 110 -5 30 -14 80 -20 110 -5 30 -14 79 -19 108 -5 28 -14 72 -19 97 -6 25 -16 74 -22 110 -6 36 -15 85 -20 110 -5 25 -14 74 -20 110 -6 36 -15 85 -20 110 -5 25 -13 72 -19 105 -6 33 -22 119 -36 190 -14 72 -30 157 -36 190 -6 33 -14 80 -19 105 -5 25 -14 74 -20 110 -6 36 -15 85 -20 110 -5 25 -14 74 -20 110 -6 36 -18 99 -27 140 -8 41 -19 100 -24 130 -5 30 -14 74 -19 98 -6 23 -10 52 -10 63 0 16 -301 472 -345 523 -5 6 -28 38 -50 71 -22 33 -43 65 -48 70 -35 48 -128 182 -331 480 -132 193 -242 352 -245 355 -3 3 -24 32 -46 65 -22 33 -42 62 -45 65 -3 3 -30 41 -60 86 -279 410 -407 594 -416 594 -6 0 -55 -66 -110 -146z m246 -529 c196 -287 233 -340 240 -345 4 -3 14 -19 23 -37 9 -17 22 -37 29 -45 7 -7 31 -40 53 -73 22 -33 42 -62 45 -65 7 -7 33 -44 242 -350 96 -140 196 -286 223 -325 26 -38 62 -90 79 -115 17 -25 35 -50 41 -56 40 -45 215 -316 215 -334 0 -12 6 -48 14 -79 7 -31 19 -87 25 -126 6 -38 16 -95 22 -125 19 -101 41 -227 58 -325 6 -33 22 -118 36 -190 14 -71 30 -157 36 -190 6 -33 14 -80 19 -105 5 -25 14 -74 20 -110 6 -36 15 -85 20 -110 5 -25 14 -74 20 -110 6 -36 17 -94 25 -130 13 -63 20 -102 45 -240 6 -36 15 -85 20 -110 5 -25 14 -74 20 -110 6 -36 15 -85 20 -110 5 -25 14 -74 20 -110 6 -36 18 -94 25 -130 7 -36 19 -94 25 -130 6 -36 15 -85 20 -110 5 -25 14 -74 20 -110 6 -36 15 -85 20 -110 5 -25 13 -72 19 -105 6 -33 22 -118 36 -190 30 -155 40 -209 55 -295 14 -82 29 -162 40 -220 4 -25 14 -74 20 -110 6 -36 18 -99 26 -140 16 -80 26 -135 44 -240 6 -36 15 -85 20 -110 8 -43 14 -77 39 -215 6 -33 21 -107 32 -165 23 -112 31 -156 48 -260 13 -81 13 -90 2 -90 -5 0 -44 -16 -85 -35 -42 -19 -78 -35 -81 -35 -3 0 -27 -10 -53 -21 -26 -12 -60 -27 -77 -34 -16 -7 -60 -27 -98 -44 -37 -17 -70 -31 -72 -31 -2 0 -34 -14 -70 -30 -36 -17 -67 -30 -70 -30 -2 0 -32 -13 -67 -29 -35 -16 -97 -43 -138 -61 -41 -18 -99 -43 -128 -56 -29 -13 -54 -24 -57 -24 -2 0 -38 -16 -79 -35 -42 -19 -78 -35 -81 -35 -2 0 -30 -12 -62 -26 -133 -60 -166 -74 -283 -124 -41 -18 -111 -48 -155 -67 -123 -54 -167 -74 -202 -89 -67 -29 -99 -43 -148 -64 -49 -22 -78 -34 -152 -66 -21 -9 -46 -20 -55 -25 -12 -6 -37 1 -85 22 -37 16 -77 34 -88 38 -46 20 -93 41 -145 64 -30 14 -89 39 -130 57 -41 18 -103 45 -138 61 -35 16 -65 29 -67 29 -3 0 -28 11 -57 24 -81 36 -309 137 -345 152 -99 42 -148 64 -261 115 -34 16 -65 29 -67 29 -3 0 -72 29 -153 65 -81 36 -157 70 -169 75 -13 6 -33 14 -45 20 -13 5 -90 39 -173 75 -82 36 -159 70 -170 74 -11 5 -42 19 -70 31 -27 12 -59 26 -71 30 -24 10 -25 -4 12 200 13 74 28 158 33 185 10 51 23 128 42 238 6 34 14 82 19 107 5 25 14 79 20 120 7 41 18 104 25 140 8 36 18 90 23 120 9 50 15 84 42 235 4 28 13 78 19 113 6 34 16 90 22 125 6 34 14 82 19 107 5 25 16 83 24 130 15 78 20 109 46 255 4 28 13 78 19 113 6 34 16 90 21 125 17 97 28 157 40 217 6 30 20 107 31 170 11 63 24 140 30 170 5 30 14 80 19 110 5 30 14 82 20 115 6 33 15 85 20 115 9 54 12 74 45 250 23 123 35 188 45 250 5 30 14 82 20 115 6 33 15 85 20 115 5 30 14 80 19 110 6 30 18 93 26 140 9 47 25 137 36 200 11 63 24 140 30 170 5 30 14 80 19 110 5 30 14 82 20 115 6 33 15 85 19 115 14 90 30 138 63 188 18 26 35 49 38 52 3 3 23 32 45 65 22 33 43 62 46 65 3 3 59 84 124 180 66 96 125 181 132 188 7 7 13 17 13 21 0 4 8 16 18 27 9 10 38 49 62 85 40 60 211 308 264 384 12 17 23 32 26 35 3 3 20 28 39 55 19 28 55 79 80 115 25 36 84 121 131 190 101 148 133 193 141 200 3 3 16 23 29 45 13 22 30 46 37 53 7 8 27 34 44 59 17 24 35 41 39 36 4 -4 63 -89 130 -188z"/>
<path d="M4806 6468 c-22 -36 -134 -223 -154 -260 -11 -18 -74 -125 -142 -238 -68 -113 -132 -220 -142 -239 -11 -19 -35 -59 -54 -88 -19 -29 -34 -58 -34 -63 0 -6 -4 -10 -9 -10 -5 0 -11 -8 -14 -17 -4 -10 -17 -36 -30 -58 -14 -22 -54 -89 -91 -148 -36 -60 -66 -111 -66 -113 0 -2 -20 -34 -43 -71 -24 -38 -46 -73 -48 -78 -6 -15 -172 -294 -230 -388 -27 -43 -49 -79 -49 -81 0 -2 -30 -53 -66 -113 -37 -59 -75 -124 -86 -143 -11 -19 -28 -46 -38 -60 -9 -14 -20 -32 -23 -40 -4 -8 -25 -44 -48 -80 -23 -36 -49 -78 -59 -95 -9 -16 -34 -56 -54 -87 l-37 -58 946 0 945 0 0 275 0 275 -359 2 -359 3 50 90 c28 50 63 113 78 140 15 28 53 94 84 149 31 54 56 100 56 101 0 2 19 36 43 77 24 40 61 105 82 143 21 39 57 104 80 145 23 41 53 95 67 120 14 25 50 88 79 140 30 52 63 112 73 132 l20 37 16 -27 c9 -15 36 -63 60 -107 24 -44 53 -96 65 -115 12 -19 39 -66 60 -105 84 -155 98 -180 106 -190 4 -6 21 -35 37 -65 16 -30 47 -86 69 -125 22 -38 57 -101 78 -140 21 -38 46 -81 55 -95 9 -14 20 -32 23 -40 4 -8 15 -28 25 -45 10 -16 38 -66 62 -110 23 -44 46 -84 50 -90 8 -10 40 -69 93 -165 16 -30 33 -59 37 -65 4 -5 22 -37 40 -70 59 -107 128 -232 144 -257 10 -17 40 -18 393 -18 211 0 383 4 383 8 0 4 -13 29 -29 54 -30 47 -59 98 -126 223 -21 39 -43 77 -50 85 -7 8 -29 47 -50 85 -72 133 -98 180 -105 190 -9 11 -37 61 -83 145 -16 30 -33 60 -37 65 -4 6 -19 30 -32 55 -14 25 -35 63 -48 85 -13 22 -34 60 -48 85 -13 25 -28 50 -32 55 -4 6 -26 46 -50 90 -24 44 -51 91 -60 105 -17 25 -41 68 -115 205 -21 39 -43 77 -50 85 -7 8 -29 47 -50 85 -49 92 -79 145 -132 232 -24 40 -43 75 -43 78 0 2 -20 39 -45 81 -25 41 -45 77 -45 79 0 2 -18 33 -40 69 -22 36 -40 68 -40 71 0 3 -10 22 -23 43 -13 20 -37 62 -54 92 -16 30 -36 65 -44 78 l-14 22 -352 0 -353 0 -14 -22z"/>
<path d="M510 750 l0 -370 390 0 390 0 0 80 0 80 -290 0 -290 0 0 60 0 60 170 0 170 0 0 90 0 90 -170 0 -170 0 0 60 0 60 290 0 290 0 0 80 0 80 -390 0 -390 0 0 -370z"/>
<path d="M1501 1106 c-61 -22 -61 -19 -61 -355 l0 -306 24 -30 24 -30 380 0 380 0 26 24 26 24 0 316 c-1 340 -1 340 -54 361 -41 15 -701 12 -745 -4z m609 -356 l0 -210 -240 0 -240 0 0 210 0 210 240 0 240 0 0 -210z"/>
<path d="M2563 1105 c-17 -7 -36 -22 -42 -34 -12 -21 -16 -327 -5 -356 16 -41 49 -45 364 -45 l300 0 0 -65 0 -65 -335 0 -335 0 0 -80 0 -80 398 0 c357 0 400 2 422 17 14 9 28 22 32 27 4 6 8 86 8 177 0 153 -2 168 -21 193 l-20 26 -315 0 -314 0 0 70 0 70 335 0 335 0 0 80 0 80 -387 0 c-307 -1 -395 -4 -420 -15z"/>
<path d="M3920 750 l0 -370 95 0 95 0 0 230 c0 127 3 230 6 230 5 0 111 -86 124 -101 3 -3 31 -26 62 -51 31 -25 71 -60 90 -76 33 -30 65 -57 203 -169 l76 -63 100 0 99 0 0 370 0 370 -100 0 -100 0 0 -226 c0 -124 -4 -224 -8 -222 -10 4 -78 58 -136 109 -23 19 -61 50 -86 69 -25 19 -47 37 -50 40 -3 3 -57 48 -120 100 -63 52 -124 102 -134 112 -16 15 -38 18 -118 18 l-98 0 0 -370z"/>
<path d="M5492 1103 c-4 -10 -19 -36 -33 -58 -15 -22 -100 -164 -189 -315 -89 -151 -173 -292 -186 -312 l-24 -38 275 0 275 0 0 80 0 80 -95 0 c-52 0 -95 3 -95 6 0 5 14 33 94 177 14 26 38 68 52 95 40 72 45 76 59 50 7 -13 26 -48 42 -78 38 -69 78 -140 114 -202 16 -27 29 -53 29 -58 0 -4 3 -10 8 -12 6 -3 33 -50 66 -115 10 -22 17 -23 129 -23 64 0 117 2 117 5 0 2 -13 26 -28 52 -16 26 -31 55 -35 63 -4 8 -17 31 -28 50 -12 19 -33 55 -47 80 -14 25 -52 92 -85 150 -33 58 -73 130 -90 160 -17 30 -40 71 -51 90 -12 19 -28 47 -35 63 -14 27 -15 27 -123 27 -94 0 -110 -2 -116 -17z"/>
<path d="M6290 1035 l0 -85 165 0 165 0 0 -285 0 -285 110 0 110 0 0 285 0 285 175 0 175 0 0 85 0 85 -450 0 -450 0 0 -85z"/>
<path d="M7340 750 l0 -370 110 0 110 0 0 370 0 370 -110 0 -110 0 0 -370z"/>
<path d="M7813 1105 c-17 -7 -36 -23 -43 -34 -7 -15 -10 -117 -8 -334 3 -294 4 -315 22 -333 19 -18 38 -19 402 -19 l382 0 26 30 26 30 0 303 c0 189 -4 311 -10 323 -25 47 -47 49 -417 49 -273 -1 -355 -4 -380 -15z m617 -355 l0 -210 -245 0 -245 0 0 210 0 210 245 0 245 0 0 -210z"/>
<path d="M8820 750 l0 -370 95 0 95 0 2 234 3 235 40 -35 c22 -19 57 -50 79 -67 21 -18 43 -36 50 -42 6 -5 38 -32 71 -60 86 -71 114 -95 159 -136 23 -20 67 -57 99 -82 l58 -47 99 0 100 0 0 370 0 370 -100 0 -100 0 0 -225 c0 -130 -4 -225 -9 -225 -5 0 -11 4 -13 8 -1 5 -26 27 -54 48 -50 38 -154 123 -204 167 -14 12 -48 40 -75 62 -58 47 -72 58 -144 119 l-55 46 -98 0 -98 0 0 -370z"/>
</g>
</svg>